<svg width="211" height="136" viewBox="0 0 211 136" fill="none" xmlns="http://www.w3.org/2000/svg">
<rect width="211" height="136" fill="#E5E5E5"/>
<rect width="211" height="136" fill="#FFFCFC"/>
<rect width="211" height="136" rx="38" fill="black"/>
<path d="M67.4688 74.2676C67.4688 73.3066 67.1992 72.5449 66.6602 71.9824C66.1328 71.4082 65.2305 70.8809 63.9531 70.4004C62.6758 69.9199 61.5742 69.4453 60.6484 68.9766C59.7227 68.4961 58.9258 67.9512 58.2578 67.3418C57.6016 66.7207 57.0859 65.9941 56.7109 65.1621C56.3477 64.3301 56.166 63.3398 56.166 62.1914C56.166 60.2109 56.7988 58.5879 58.0645 57.3223C59.3301 56.0566 61.0117 55.3184 63.1094 55.1074V51.3457H65.9219V55.1602C67.9961 55.4531 69.6191 56.3203 70.791 57.7617C71.9629 59.1914 72.5488 61.0488 72.5488 63.334H67.4688C67.4688 61.9277 67.1758 60.8789 66.5898 60.1875C66.0156 59.4844 65.2422 59.1328 64.2695 59.1328C63.3086 59.1328 62.5645 59.4082 62.0371 59.959C61.5098 60.498 61.2461 61.248 61.2461 62.209C61.2461 63.0996 61.5039 63.8145 62.0195 64.3535C62.5352 64.8926 63.4902 65.4434 64.8848 66.0059C66.291 66.5684 67.4453 67.1016 68.3477 67.6055C69.25 68.0977 70.0117 68.6602 70.6328 69.293C71.2539 69.9141 71.7285 70.6289 72.0566 71.4375C72.3848 72.2344 72.5488 73.166 72.5488 74.2324C72.5488 76.2246 71.9277 77.8418 70.6855 79.084C69.4434 80.3262 67.7324 81.0586 65.5527 81.2812V84.7793H62.7578V81.2988C60.3555 81.041 58.4922 80.1914 57.168 78.75C55.8555 77.2969 55.1992 75.3691 55.1992 72.9668H60.2793C60.2793 74.3613 60.6074 75.4336 61.2637 76.1836C61.9316 76.9219 62.8867 77.291 64.1289 77.291C65.1602 77.291 65.9746 77.0215 66.5723 76.4824C67.1699 75.9316 67.4688 75.1934 67.4688 74.2676ZM93.5371 81H75.9941V77.5195L84.2734 68.6953C85.4102 67.4531 86.248 66.3691 86.7871 65.4434C87.3379 64.5176 87.6133 63.6387 87.6133 62.8066C87.6133 61.6699 87.3262 60.7793 86.752 60.1348C86.1777 59.4785 85.3574 59.1504 84.291 59.1504C83.1426 59.1504 82.2344 59.5488 81.5664 60.3457C80.9102 61.1309 80.582 62.168 80.582 63.457H75.4844C75.4844 61.8984 75.8535 60.4746 76.5918 59.1855C77.3418 57.8965 78.3965 56.8887 79.7559 56.1621C81.1152 55.4238 82.6562 55.0547 84.3789 55.0547C87.0156 55.0547 89.0605 55.6875 90.5137 56.9531C91.9785 58.2188 92.7109 60.0059 92.7109 62.3145C92.7109 63.5801 92.3828 64.8691 91.7266 66.1816C91.0703 67.4941 89.9453 69.0234 88.3516 70.7695L82.5332 76.9043H93.5371V81ZM113.893 70.418C113.893 73.957 113.16 76.6641 111.695 78.5391C110.23 80.4141 108.086 81.3516 105.262 81.3516C102.473 81.3516 100.34 80.4316 98.8633 78.5918C97.3867 76.752 96.6309 74.1152 96.5957 70.6816V65.9707C96.5957 62.3965 97.334 59.6836 98.8105 57.832C100.299 55.9805 102.438 55.0547 105.227 55.0547C108.016 55.0547 110.148 55.9746 111.625 57.8145C113.102 59.6426 113.857 62.2734 113.893 65.707V70.418ZM108.812 65.25C108.812 63.1289 108.52 61.5879 107.934 60.627C107.359 59.6543 106.457 59.168 105.227 59.168C104.031 59.168 103.146 59.6309 102.572 60.5566C102.01 61.4707 101.711 62.9062 101.676 64.8633V71.0859C101.676 73.1719 101.957 74.7246 102.52 75.7441C103.094 76.752 104.008 77.2559 105.262 77.2559C106.504 77.2559 107.4 76.7695 107.951 75.7969C108.502 74.8242 108.789 73.3359 108.812 71.332V65.25ZM117.812 78.5039C117.812 77.6953 118.082 77.0391 118.621 76.5352C119.172 76.0312 119.857 75.7793 120.678 75.7793C121.51 75.7793 122.195 76.0312 122.734 76.5352C123.285 77.0391 123.561 77.6953 123.561 78.5039C123.561 79.3008 123.291 79.9512 122.752 80.4551C122.213 80.9473 121.521 81.1934 120.678 81.1934C119.846 81.1934 119.16 80.9473 118.621 80.4551C118.082 79.9512 117.812 79.3008 117.812 78.5039ZM139.697 70.7695C138.373 72.0703 136.826 72.7207 135.057 72.7207C132.795 72.7207 130.984 71.9473 129.625 70.4004C128.266 68.8418 127.586 66.7441 127.586 64.1074C127.586 62.4316 127.949 60.8965 128.676 59.502C129.414 58.0957 130.439 57.0059 131.752 56.2324C133.064 55.4473 134.541 55.0547 136.182 55.0547C137.869 55.0547 139.369 55.4766 140.682 56.3203C141.994 57.1641 143.014 58.377 143.74 59.959C144.467 61.541 144.836 63.3516 144.848 65.3906V67.2715C144.848 71.5371 143.787 74.8887 141.666 77.3262C139.545 79.7637 136.539 81.0645 132.648 81.2285L131.4 81.2461V77.0098L132.525 76.9922C136.943 76.793 139.334 74.7188 139.697 70.7695ZM136.305 68.8359C137.125 68.8359 137.828 68.625 138.414 68.2031C139.012 67.7812 139.463 67.2715 139.768 66.6738V64.582C139.768 62.8594 139.439 61.5234 138.783 60.5742C138.127 59.625 137.248 59.1504 136.146 59.1504C135.127 59.1504 134.289 59.6191 133.633 60.5566C132.977 61.4824 132.648 62.6484 132.648 64.0547C132.648 65.4492 132.965 66.5977 133.598 67.5C134.242 68.3906 135.145 68.8359 136.305 68.8359ZM160.369 70.7695C159.045 72.0703 157.498 72.7207 155.729 72.7207C153.467 72.7207 151.656 71.9473 150.297 70.4004C148.938 68.8418 148.258 66.7441 148.258 64.1074C148.258 62.4316 148.621 60.8965 149.348 59.502C150.086 58.0957 151.111 57.0059 152.424 56.2324C153.736 55.4473 155.213 55.0547 156.854 55.0547C158.541 55.0547 160.041 55.4766 161.354 56.3203C162.666 57.1641 163.686 58.377 164.412 59.959C165.139 61.541 165.508 63.3516 165.52 65.3906V67.2715C165.52 71.5371 164.459 74.8887 162.338 77.3262C160.217 79.7637 157.211 81.0645 153.32 81.2285L152.072 81.2461V77.0098L153.197 76.9922C157.615 76.793 160.006 74.7188 160.369 70.7695ZM156.977 68.8359C157.797 68.8359 158.5 68.625 159.086 68.2031C159.684 67.7812 160.135 67.2715 160.439 66.6738V64.582C160.439 62.8594 160.111 61.5234 159.455 60.5742C158.799 59.625 157.92 59.1504 156.818 59.1504C155.799 59.1504 154.961 59.6191 154.305 60.5566C153.648 61.4824 153.32 62.6484 153.32 64.0547C153.32 65.4492 153.637 66.5977 154.27 67.5C154.914 68.3906 155.816 68.8359 156.977 68.8359Z" fill="white"/>
</svg>
